<svg width="13" height="13" viewBox="0 0 13 13" fill="none" xmlns="http://www.w3.org/2000/svg">
<path d="M6.27 1.01367C3.23885 1.01367 0.783752 3.46877 0.783752 6.49992C0.783752 8.92759 2.35419 10.9781 4.53498 11.705C4.80929 11.753 4.91216 11.5884 4.91216 11.4444C4.91216 11.3141 4.9053 10.8821 4.9053 10.4226C3.52688 10.6763 3.17027 10.0866 3.06055 9.77796C2.99883 9.62023 2.73137 9.13332 2.49821 9.00302C2.30619 8.90016 2.03187 8.64642 2.49135 8.63956C2.92339 8.6327 3.23199 9.03731 3.33486 9.2019C3.82862 10.0317 4.61727 9.79853 4.93273 9.65452C4.98073 9.29791 5.12475 9.05789 5.28248 8.92073C4.06179 8.78357 2.78623 8.31038 2.78623 6.21189C2.78623 5.61526 2.99883 5.1215 3.34857 4.73746C3.29371 4.60031 3.10169 4.03797 3.40344 3.28361C3.40344 3.28361 3.86291 3.13959 4.91216 3.84595C5.35106 3.72251 5.81739 3.66079 6.28372 3.66079C6.75005 3.66079 7.21638 3.72251 7.65528 3.84595C8.70453 3.13274 9.164 3.28361 9.164 3.28361C9.46574 4.03797 9.27373 4.60031 9.21886 4.73746C9.56861 5.1215 9.7812 5.60841 9.7812 6.21189C9.7812 8.31724 8.49879 8.78357 7.2781 8.92073C7.47698 9.09218 7.64842 9.42135 7.64842 9.93569C7.64842 10.6695 7.64157 11.2592 7.64157 11.4444C7.64157 11.5884 7.74443 11.7599 8.01875 11.705C9.10787 11.3373 10.0543 10.6374 10.7247 9.70363C11.3952 8.76991 11.756 7.64943 11.7563 6.49992C11.7563 3.46877 9.30116 1.01367 6.27 1.01367Z" fill="black"/>
</svg>
