<svg width="13" height="13" viewBox="0 0 13 13" fill="none" xmlns="http://www.w3.org/2000/svg">
<path d="M11.7605 6.62198C11.7605 6.17075 11.7232 5.84147 11.6423 5.5H6.38452V7.53663H9.47072C9.40852 8.04277 9.07252 8.80499 8.32584 9.31718L8.31537 9.38536L9.97778 10.6475L10.093 10.6587C11.1507 9.70136 11.7605 8.29276 11.7605 6.62198Z" fill="#4285F4"/>
<path d="M6.38419 11.9881C7.89616 11.9881 9.16548 11.5002 10.0926 10.6588L8.3255 9.3172C7.85263 9.64039 7.21795 9.86601 6.38419 9.86601C4.90332 9.86601 3.64644 8.90868 3.1984 7.58545L3.13273 7.59091L1.40414 8.90195L1.38153 8.96354C2.30241 10.7563 4.19396 11.9881 6.38419 11.9881Z" fill="#34A853"/>
<path d="M3.19874 7.58539C3.08052 7.24392 3.0121 6.87803 3.0121 6.49998C3.0121 6.1219 3.08052 5.75605 3.19252 5.41458L3.18939 5.34185L1.43913 4.00977L1.38186 4.03646C1.00233 4.7804 0.784546 5.61581 0.784546 6.49998C0.784546 7.38416 1.00233 8.21953 1.38186 8.96347L3.19874 7.58539Z" fill="#FBBC05"/>
<path d="M6.38422 3.13397C7.43576 3.13397 8.14508 3.57911 8.54954 3.9511L10.13 2.43884C9.15934 1.55467 7.8962 1.01196 6.38422 1.01196C4.19397 1.01196 2.30241 2.2437 1.38153 4.03644L3.19219 5.41455C3.64646 4.09134 4.90334 3.13397 6.38422 3.13397Z" fill="#EB4335"/>
</svg>
