<svg width="18" height="18" viewBox="0 0 18 18" fill="none" xmlns="http://www.w3.org/2000/svg">
<g id="material-symbols-light:api">
<path id="Vector" d="M9.07614 10.3303L7.65947 8.91367L9.07614 7.497L10.4928 8.91367L9.07614 10.3303ZM7.57093 6.41396L6.37243 5.21617L9.07614 2.51175L11.7798 5.21546L10.5813 6.41396L9.07614 4.90875L7.57093 6.41396ZM5.37793 11.6174L2.67422 8.91367L5.37793 6.20996L6.57572 7.40846L5.07122 8.91367L6.57643 10.4189L5.37793 11.6174ZM12.7743 11.6174L11.5758 10.4189L13.0811 8.91367L11.5758 7.40846L12.7743 6.20996L15.4781 8.91367L12.7743 11.6174ZM9.07614 15.3156L6.37243 12.6119L7.57093 11.4134L9.07614 12.9186L10.5813 11.4134L11.7798 12.6119L9.07614 15.3156Z" fill="black"/>
</g>
</svg>
