<svg width="107" height="20" viewBox="0 0 107 20" fill="none" xmlns="http://www.w3.org/2000/svg">
<g clip-path="url(#clip0_2541_9224)">
<path d="M15.1129 2.25879H0.871076C0.416549 2.25879 -0.000101808 2.63432 -0.000101808 3.12252V4.69977C-0.000101808 5.18797 0.416549 5.60106 0.871076 5.60106H15.1129C15.6054 5.60106 15.9841 5.18797 16.022 4.69977V3.16008C16.022 2.63432 15.6054 2.25879 15.1129 2.25879ZM15.1129 11.1214H0.871076C0.643812 11.1214 0.416549 11.2341 0.227162 11.3843C0.0756528 11.5345 -0.0379791 11.7598 -0.0379791 12.0227V13.6C-0.0379791 14.0882 0.378671 14.5013 0.833199 14.5013H15.0751C15.5675 14.5013 15.9462 14.1257 15.9841 13.6V12.0227C16.022 11.497 15.6054 11.1214 15.1129 11.1214ZM8.90107 15.5152H0.871076C0.643812 15.5152 0.416549 15.5903 0.265039 15.7781C0.11353 15.9283 -0.000101808 16.1536 -0.000101808 16.4165V17.9937C-0.000101808 18.4819 0.416549 18.895 0.871076 18.895H8.86319C9.35559 18.895 9.73437 18.4819 9.73437 17.9937V16.3789C9.77225 15.9283 9.39347 15.5152 8.90107 15.5152ZM16.022 6.69011H0.871076C0.643812 6.69011 0.416549 6.76522 0.265039 6.95299C0.11353 7.1032 -0.000101808 7.32852 -0.000101808 7.5914V9.16865C-0.000101808 9.65685 0.416549 10.0699 0.871076 10.0699H15.9841C16.4765 10.0699 16.8553 9.65685 16.8553 9.16865V7.5914C16.8932 7.06565 16.5144 6.69011 16.022 6.69011Z" fill="#00C3F7"/>
<path d="M32.5744 5.82646C32.1199 5.37582 31.6275 5.03784 31.0215 4.77496C30.4533 4.51209 29.8094 4.39943 29.1655 4.39943C28.5595 4.39943 27.9534 4.51209 27.3853 4.77496C27.0065 4.96273 26.6656 5.18805 26.4004 5.48848V5.22561C26.4004 5.07539 26.3247 4.96273 26.2489 4.85007C26.1353 4.73741 26.0217 4.6623 25.8702 4.6623H23.8627C23.7112 4.6623 23.5596 4.73741 23.4839 4.85007C23.3703 4.96273 23.3324 5.07539 23.3324 5.22561V18.3694C23.3324 18.5196 23.4081 18.6322 23.4839 18.7449C23.5975 18.8576 23.7112 18.8951 23.8627 18.8951H25.8702C26.0217 18.8951 26.1353 18.8576 26.2489 18.7449C26.3626 18.6322 26.4004 18.5196 26.4004 18.3694V13.8629C26.7035 14.1634 27.0444 14.4262 27.461 14.5389C27.9913 14.7267 28.5595 14.8393 29.0897 14.8393C29.7337 14.8393 30.3776 14.7267 30.9457 14.4638C31.5518 14.2385 32.082 13.8629 32.4987 13.4123C32.9532 12.9241 33.332 12.3608 33.5593 11.7599C33.8244 11.084 33.9759 10.3329 33.938 9.61938C33.938 8.8683 33.8244 8.15479 33.5593 7.44127C33.4077 6.87796 33.029 6.31466 32.5744 5.82646ZM30.7942 10.5958C30.6806 10.8586 30.5291 11.1215 30.3397 11.3468C29.923 11.7975 29.3549 12.0228 28.7488 12.0228C28.4458 12.0228 28.1428 11.9477 27.8777 11.835C27.6125 11.7224 27.3474 11.5346 27.158 11.3468C26.9686 11.1215 26.7792 10.8586 26.6656 10.5958C26.4383 9.99491 26.4383 9.3565 26.6656 8.75564C26.7792 8.49277 26.9307 8.22989 27.158 8.00457C27.3853 7.77925 27.6125 7.62904 27.8777 7.47882C28.1428 7.36616 28.4458 7.29105 28.7488 7.29105C29.0519 7.29105 29.3549 7.36616 29.6579 7.47882C29.923 7.59148 30.1503 7.77925 30.3776 7.96702C30.5669 8.19234 30.7185 8.41766 30.8321 8.71809C31.0215 9.31895 31.0215 9.99491 30.7942 10.5958ZM44.8846 4.69986H42.8771C42.7256 4.69986 42.6119 4.77496 42.4983 4.85007C42.3847 4.96273 42.3468 5.11295 42.3468 5.26316V5.48848C42.0817 5.18805 41.7786 4.96273 41.4377 4.81252C40.9075 4.54964 40.3014 4.43698 39.6954 4.43698C38.4076 4.43698 37.1576 4.96273 36.2485 5.86402C35.794 6.35221 35.4152 6.91552 35.1501 7.51637C34.8471 8.19234 34.7335 8.94341 34.7335 9.69448C34.7335 10.4456 34.8471 11.1966 35.1501 11.8726C35.4152 12.4734 35.794 13.0368 36.2485 13.525C37.1576 14.4262 38.3697 14.952 39.6575 14.952C40.2635 14.952 40.8696 14.8393 41.3999 14.5765C41.7408 14.3887 42.0817 14.1634 42.3089 13.9005V14.1634C42.3089 14.3136 42.3847 14.4262 42.4604 14.5389C42.5741 14.614 42.6877 14.6891 42.8392 14.6891H44.8467C44.9982 14.6891 45.1118 14.614 45.2255 14.5389C45.3391 14.4262 45.377 14.3136 45.377 14.1634V5.26316C45.377 5.11295 45.3391 5.00028 45.2255 4.88762C45.1497 4.73741 45.0361 4.69986 44.8846 4.69986ZM42.1574 10.5582C42.0438 10.8211 41.8923 11.084 41.7029 11.3093C41.5135 11.4971 41.2484 11.6848 40.9832 11.835C40.4151 12.0979 39.7711 12.0979 39.203 11.835C38.9378 11.7224 38.6727 11.5346 38.4833 11.3093C38.2939 11.084 38.1045 10.8211 38.0288 10.5582C37.8015 9.95736 37.8015 9.31895 38.0288 8.71809C38.1424 8.45521 38.2939 8.19234 38.4833 7.96702C38.6727 7.7417 38.9378 7.59148 39.203 7.44127C39.7711 7.17839 40.4151 7.17839 40.9832 7.44127C41.2484 7.55393 41.4756 7.7417 41.7029 7.92946C41.8923 8.15479 42.0438 8.38011 42.1574 8.68054C42.4226 9.31895 42.4226 9.99491 42.1574 10.5582ZM64.8459 9.39405C64.5429 9.13118 64.2399 8.94341 63.8611 8.7932C63.4823 8.64298 63.1036 8.53032 62.6869 8.45521L61.1718 8.15479C60.7931 8.07968 60.49 7.96702 60.3385 7.85436C60.2249 7.77925 60.1491 7.62904 60.1491 7.47882C60.1491 7.32861 60.2249 7.17839 60.4522 7.06573C60.7173 6.91552 61.0203 6.84041 61.2855 6.87796C61.6642 6.87796 62.0809 6.95307 62.4218 7.10329C62.7627 7.2535 63.1036 7.44127 63.4066 7.62904C63.8611 7.89191 64.2399 7.85436 64.505 7.55393L65.2247 6.72775C65.3762 6.57754 65.452 6.38977 65.452 6.202C65.452 6.01423 65.3383 5.78891 65.1868 5.67625C64.8838 5.41337 64.3914 5.11294 63.7096 4.85007C63.0657 4.58719 62.2324 4.43698 61.2476 4.43698C60.6415 4.43698 60.0734 4.51209 59.5052 4.69986C59.0128 4.85007 58.5583 5.07539 58.1795 5.37582C57.8007 5.6387 57.5356 6.01423 57.3083 6.42732C57.119 6.84041 57.0053 7.2535 57.0053 7.70414C57.0053 8.53032 57.2705 9.20629 57.7629 9.69448C58.2553 10.1827 58.8992 10.5207 59.7325 10.6709L61.3233 11.0089C61.6642 11.084 62.0051 11.1591 62.346 11.3093C62.5354 11.3844 62.649 11.5346 62.649 11.7599C62.649 11.9477 62.5733 12.0979 62.346 12.2481C62.1566 12.3983 61.8157 12.4734 61.3991 12.4734C60.9824 12.4734 60.5279 12.3983 60.1491 12.2106C59.7704 12.0228 59.4295 11.7975 59.1265 11.5346C58.9749 11.4219 58.8234 11.3468 58.6719 11.2717C58.4825 11.2342 58.2553 11.2717 58.028 11.4595L57.1568 12.1355C56.9296 12.3232 56.7781 12.6237 56.8538 12.8865C56.8917 13.187 57.1568 13.4498 57.5735 13.7878C58.6719 14.5389 59.9976 14.9144 61.3233 14.8769C61.9294 14.8769 62.5733 14.8018 63.1414 14.614C63.6717 14.4638 64.1263 14.2385 64.5429 13.9005C64.9217 13.6001 65.2626 13.2245 65.452 12.8114C65.6792 12.3983 65.755 11.9477 65.755 11.4595C65.755 11.0464 65.6792 10.6333 65.4898 10.2202C65.3383 9.95736 65.1111 9.65693 64.8459 9.39405ZM73.5577 11.7975C73.482 11.6473 73.2926 11.5346 73.1032 11.4971C72.9138 11.4971 72.7244 11.5722 72.5729 11.6473C72.3456 11.7975 72.0426 11.9101 71.7396 11.9101C71.6638 11.9101 71.5502 11.9101 71.4366 11.8726C71.323 11.8726 71.2472 11.7975 71.1714 11.7224C71.0957 11.6473 71.0199 11.5346 70.9442 11.4219C70.8684 11.2717 70.8305 11.084 70.8684 10.8962V7.29105H73.482C73.6335 7.29105 73.785 7.21595 73.8986 7.10329C74.0122 6.99062 74.088 6.87796 74.088 6.72775V5.18805C74.088 5.03784 74.0122 4.88762 73.8986 4.81252C73.785 4.69986 73.6713 4.6623 73.5198 4.6623H70.9063V2.22132C70.9063 2.0711 70.8684 1.92089 70.7548 1.84578C70.6412 1.73312 70.5275 1.69557 70.376 1.69557H68.3685C68.217 1.69557 68.0655 1.73312 67.9897 1.84578C67.8761 1.95844 67.8382 2.10866 67.8382 2.22132V4.69986H66.7019C66.5504 4.69986 66.3989 4.77496 66.3231 4.88762C66.2095 5.00028 66.1716 5.11295 66.1716 5.26316V6.80286C66.1716 6.95307 66.2095 7.06573 66.3231 7.17839C66.3989 7.29105 66.5504 7.36616 66.7019 7.36616H67.8382V11.6473C67.8382 12.173 67.914 12.6612 68.1413 13.1119C68.3306 13.4874 68.5958 13.8254 68.8988 14.0883C69.2018 14.3511 69.5806 14.5389 69.9972 14.6516C70.4139 14.7642 70.8305 14.8393 71.2472 14.8393C71.8154 14.8393 72.3456 14.7642 72.8759 14.5765C73.3683 14.4262 73.8229 14.1258 74.1638 13.7878C74.391 13.5625 74.4289 13.187 74.2395 12.9241L73.5577 11.7975ZM84.5421 4.69986H82.5346C82.3831 4.69986 82.2695 4.77496 82.1559 4.85007C82.0422 4.96273 82.0043 5.11295 82.0043 5.26316V5.48848C81.7392 5.18805 81.4362 4.96273 81.0953 4.81252C80.565 4.54964 79.959 4.43698 79.3529 4.43698C78.0651 4.43698 76.853 4.96273 75.944 5.86402C75.4895 6.35221 75.1107 6.91552 74.8455 7.51637C74.5425 8.19234 74.4289 8.94341 74.4289 9.65693C74.4289 10.408 74.5425 11.1215 74.8455 11.835C75.1107 12.4359 75.4895 12.9992 75.944 13.4874C76.853 14.3887 78.0651 14.9144 79.3529 14.9144C79.959 14.9144 80.565 14.8018 81.0953 14.5389C81.4362 14.3511 81.7771 14.1258 82.0043 13.8629V14.1258C82.0043 14.276 82.0422 14.3887 82.1559 14.5013C82.2695 14.614 82.3831 14.6516 82.5346 14.6516H84.5421C84.8452 14.6516 85.0724 14.4262 85.0724 14.1258V5.26316C85.0724 5.11295 85.0345 5.00028 84.9209 4.88762C84.8073 4.73741 84.6936 4.69986 84.5421 4.69986ZM81.815 10.5582C81.7013 10.8211 81.5498 11.084 81.3604 11.3093C81.1332 11.4971 80.9059 11.6848 80.6408 11.835C80.3756 11.9477 80.0347 12.0228 79.7317 12.0228C79.4287 12.0228 79.1257 11.9477 78.8605 11.835C78.5954 11.7224 78.3303 11.5346 78.1409 11.3093C77.9515 11.084 77.7621 10.8211 77.6863 10.5582C77.4591 9.95736 77.4591 9.31895 77.6863 8.71809C77.8 8.45521 77.9515 8.19234 78.1409 7.96702C78.3681 7.7417 78.5954 7.59148 78.8605 7.44127C79.1257 7.32861 79.4287 7.2535 79.7317 7.2535C80.0347 7.2535 80.3377 7.32861 80.6408 7.44127C80.9059 7.55393 81.1332 7.7417 81.3604 7.92946C81.5498 8.15479 81.7392 8.38011 81.815 8.68054C82.0801 9.31895 82.0801 9.99491 81.815 10.5582ZM95.5266 11.6473L94.3902 10.7835C94.163 10.5958 93.9736 10.5582 93.7842 10.6333C93.6327 10.7084 93.4812 10.8211 93.3675 10.9338C93.1024 11.2342 92.8373 11.4971 92.4964 11.7224C92.1555 11.9101 91.7767 12.0228 91.3601 11.9853C90.9055 11.9853 90.4889 11.8726 90.1101 11.6097C89.7313 11.3468 89.4662 10.9713 89.3147 10.5582C89.201 10.2578 89.1632 9.95736 89.1632 9.65693C89.1632 9.3565 89.201 9.01852 89.3147 8.71809C89.4283 8.45521 89.5798 8.19234 89.7692 7.96702C89.9965 7.7417 90.2237 7.59148 90.4889 7.47882C90.754 7.36616 91.0949 7.29105 91.3979 7.29105C91.7767 7.29105 92.1934 7.36616 92.4964 7.55393C92.8373 7.77925 93.1024 8.04213 93.3675 8.34255C93.4812 8.45521 93.6327 8.56787 93.7842 8.64298C93.9736 8.71809 94.163 8.68054 94.3902 8.49277L95.5266 7.62904C95.6781 7.51638 95.7917 7.40371 95.8296 7.2535C95.9053 7.06573 95.8674 6.87796 95.7917 6.72775C95.3372 6.05178 94.7311 5.48848 94.0115 5.07539C93.2539 4.6623 92.3449 4.43698 91.3222 4.43698C90.6025 4.43698 89.8828 4.58719 89.2389 4.85007C88.595 5.11294 88.0268 5.48848 87.5344 5.97668C87.042 6.46487 86.6633 7.02818 86.3981 7.62904C85.8678 8.94341 85.8678 10.4456 86.3981 11.7599C86.6633 12.3983 87.042 12.9616 87.5344 13.4123C88.5571 14.3887 89.8828 14.9144 91.3222 14.9144C92.3449 14.9144 93.2539 14.6891 94.0115 14.276C94.7311 13.8629 95.3372 13.2996 95.7917 12.6237C95.9053 12.4735 95.9053 12.2857 95.8296 12.0979C95.7538 11.9101 95.6402 11.7599 95.5266 11.6473ZM106.17 13.7127L103.026 9.09363L105.716 5.56359C105.829 5.41337 105.867 5.18805 105.829 5.00028C105.791 4.85007 105.64 4.69986 105.337 4.69986H103.216C103.102 4.69986 102.988 4.73741 102.875 4.77496C102.723 4.85007 102.647 4.92518 102.572 5.07539L100.413 8.07968H99.8825V0.982049C99.8825 0.831835 99.8446 0.719174 99.7309 0.606513C99.6173 0.493852 99.5037 0.456299 99.3522 0.456299H97.3447C97.1932 0.456299 97.0795 0.493852 96.9659 0.606513C96.8523 0.719174 96.8144 0.831835 96.8144 0.982049V14.0507C96.8144 14.2009 96.8901 14.3511 96.9659 14.4262C97.0795 14.5389 97.1932 14.5765 97.3447 14.5765H99.3522C99.5037 14.5765 99.6173 14.5013 99.7309 14.4262C99.8446 14.3136 99.8825 14.2009 99.8825 14.0507V10.5958H100.451L102.799 14.2009C102.951 14.4638 103.216 14.614 103.481 14.614H105.716C106.056 14.614 106.208 14.4638 106.246 14.3136C106.322 14.1258 106.284 13.9005 106.17 13.7127ZM56.2478 4.69986H54.013C53.8615 4.69986 53.6721 4.73741 53.5585 4.88762C53.4449 5.00028 53.3691 5.11295 53.3691 5.26316L51.7025 11.3468H51.2858L49.5056 5.22561C49.4677 5.11294 49.4299 4.96273 49.3162 4.85007C49.2026 4.73741 49.0511 4.6623 48.8996 4.6623H46.5891C46.286 4.6623 46.0967 4.77496 46.0209 4.96273C45.9451 5.1505 45.9451 5.33827 46.0209 5.48848L48.8617 14.0883C48.8996 14.2009 48.9753 14.3511 49.089 14.4262C49.2026 14.5389 49.3541 14.5765 49.5056 14.5765H50.7177L50.6041 14.8393L50.3389 15.628C50.2632 15.8533 50.1116 16.0786 49.8844 16.2664C49.695 16.4166 49.4677 16.4917 49.2026 16.4917C49.0132 16.4917 48.7859 16.4541 48.5966 16.379C48.4072 16.3039 48.2178 16.1913 48.0663 16.0786C47.9148 15.9659 47.7254 15.9284 47.5739 15.9284H47.536C47.3087 15.9284 47.1193 16.041 47.0436 16.2288L46.3239 17.2803C46.0209 17.731 46.2103 18.0314 46.3997 18.1816C46.7784 18.5196 47.233 18.7825 47.7254 18.9702C48.2557 19.158 48.8238 19.2331 49.4299 19.2331C50.4525 19.2331 51.3237 18.9702 51.9676 18.4069C52.6494 17.8061 53.1418 17.0174 53.407 16.1537L56.7023 5.52603C56.7781 5.33827 56.7781 5.1505 56.7023 4.96273C56.7023 4.81252 56.5508 4.69986 56.2478 4.69986Z" fill="#011B33"/>
</g>
<defs>
<clipPath id="clip0_2541_9224">
<rect width="106.284" height="18.7768" fill="white" transform="translate(0 0.456299)"/>
</clipPath>
</defs>
</svg>
