<svg width="36" height="40" viewBox="0 0 36 40" fill="none" xmlns="http://www.w3.org/2000/svg">
<g clip-path="url(#clip0_2541_9229)">
<path fill-rule="evenodd" clip-rule="evenodd" d="M24.9358 38.8151L24.8482 5.16854C24.6213 4.94191 24.1788 5.01035 24.0059 5.06084L22.8535 5.41761C22.7113 4.95006 22.5267 4.49642 22.3021 4.06232C21.4844 2.50285 20.2894 1.67823 18.8428 1.67599H18.8383C18.7418 1.67599 18.6463 1.68496 18.5497 1.69282L18.5385 1.69394C18.4966 1.64247 18.4532 1.59233 18.4082 1.5436C17.7792 0.870446 16.9706 0.541722 16.0024 0.56977C14.1358 0.623622 12.277 1.97218 10.7686 4.36749C9.70728 6.05374 8.90199 8.17082 8.67175 9.80995L4.99574 10.9487C3.91416 11.2886 3.88047 11.3223 3.73783 12.3421C3.63113 13.114 0.799716 35.0129 0.799716 35.0129L24.5293 39.1169L24.9358 38.8151ZM17.1615 2.10793C16.8459 1.90037 16.4764 1.80389 16.0384 1.81286C13.1564 1.89589 10.6428 6.39817 10.0015 9.3982L12.7622 8.54329L13.2552 8.39071C13.6169 6.48568 14.5244 4.50885 15.7115 3.23659C16.1266 2.7807 16.6166 2.39899 17.1604 2.10793H17.1615ZM14.6199 7.96775L18.5823 6.74036C18.5946 5.70819 18.4823 4.18237 17.9657 3.10532C17.4153 3.33195 16.9526 3.72911 16.6202 4.08476C15.7295 5.04177 15.0028 6.50139 14.621 7.96775H14.6199ZM19.8233 6.35666L21.6653 5.7856C21.371 4.82972 20.6724 3.22761 19.2561 2.95835C19.6964 4.09486 19.8098 5.41088 19.8233 6.35666Z" fill="#95BF47"/>
<path d="M30.2529 7.67147C30.1114 7.66025 27.3687 7.61761 27.3687 7.61761C27.3687 7.61761 25.0742 5.38947 24.8473 5.16172C24.7595 5.08074 24.6482 5.02967 24.5294 5.01587V39.1112L34.8117 36.5543C34.8117 36.5543 30.6157 8.1797 30.5887 7.98561C30.5758 7.90318 30.5355 7.82746 30.4745 7.77053C30.4134 7.7136 30.3361 7.67872 30.2529 7.67147Z" fill="#5E8E3E"/>
<path d="M18.8306 12.9659L17.6355 17.4357C17.6355 17.4357 16.3035 16.8287 14.7233 16.9286C12.4074 17.0744 12.3827 18.5363 12.4062 18.9032C12.532 20.9002 17.7894 21.3377 18.0848 26.0195C18.3173 29.7028 16.1317 32.2238 12.9824 32.4212C9.20306 32.6602 7.1219 30.4298 7.1219 30.4298L7.92269 27.0214C7.92269 27.0214 10.0173 28.6022 11.693 28.4956C12.7892 28.4272 13.1801 27.5364 13.1408 26.9059C12.9757 24.2996 8.69429 24.4522 8.42361 20.1687C8.19674 16.5617 10.5632 12.9098 15.7869 12.58C17.7995 12.4521 18.8306 12.967 18.8306 12.967" fill="white"/>
</g>
<defs>
<clipPath id="clip0_2541_9229">
<rect width="34.8171" height="39.2674" fill="white" transform="translate(0.435898 0.240967)"/>
</clipPath>
</defs>
</svg>
