<svg width="82" height="22" viewBox="0 0 82 22" fill="none" xmlns="http://www.w3.org/2000/svg">
<rect width="82" height="22" fill="#E0E0E0"/>
<g id="Onboarding">
<path d="M-108 -253H7347V-255H-108V-253ZM7348 -252V981H7350V-252H7348ZM7347 982H-108V984H7347V982ZM-109 981V-252H-111V981H-109ZM-108 982C-108.552 982 -109 981.552 -109 981H-111C-111 982.657 -109.656 984 -108 984V982ZM7348 981C7348 981.552 7347.55 982 7347 982V984C7348.66 984 7350 982.657 7350 981H7348ZM7347 -253C7347.55 -253 7348 -252.552 7348 -252H7350C7350 -253.657 7348.66 -255 7347 -255V-253ZM-108 -255C-109.657 -255 -111 -253.657 -111 -252H-109C-109 -252.552 -108.552 -253 -108 -253V-255Z" fill="black" fill-opacity="0.1"/>
<g id="Desktop - 6">
<rect width="1440" height="1024" transform="translate(-88 -61)" fill="white"/>
<g id="Frame 427321420">
<rect width="611" height="1024" transform="translate(-88 -61)" fill="#FCFCFC"/>
<g id="Frame 427321486">
<g id="Sigflow.">
<path d="M9.70599 5.26732C9.63361 4.58999 9.32855 4.0626 8.79082 3.68516C8.25827 3.30772 7.56543 3.11899 6.7123 3.11899C6.11253 3.11899 5.59807 3.20948 5.16892 3.39044C4.73977 3.57141 4.41145 3.81701 4.18395 4.12723C3.95645 4.43746 3.84011 4.79164 3.83494 5.18976C3.83494 5.52067 3.90991 5.80763 4.05986 6.05064C4.21497 6.29365 4.42438 6.50047 4.68807 6.6711C4.95176 6.83655 5.24389 6.97615 5.56446 7.0899C5.88503 7.20365 6.20818 7.29931 6.53392 7.37686L8.02301 7.74914C8.62278 7.88874 9.19929 8.07746 9.75253 8.3153C10.3109 8.55314 10.8099 8.85303 11.2494 9.21496C11.694 9.57689 12.0456 10.0138 12.3041 10.5257C12.5627 11.0375 12.6919 11.6373 12.6919 12.325C12.6919 13.2557 12.4541 14.0752 11.9784 14.7835C11.5027 15.4867 10.8151 16.0374 9.9154 16.4355C9.02091 16.8285 7.9377 17.0249 6.66577 17.0249C5.43003 17.0249 4.35716 16.8336 3.44716 16.451C2.54233 16.0684 1.83398 15.51 1.3221 14.7758C0.815398 14.0416 0.541364 13.1471 0.5 12.0923H3.33082C3.37219 12.6456 3.54281 13.1057 3.8427 13.4728C4.14259 13.8399 4.53295 14.114 5.01381 14.2949C5.49983 14.4759 6.04273 14.5664 6.6425 14.5664C7.26813 14.5664 7.81619 14.4733 8.28671 14.2872C8.76239 14.0959 9.13466 13.8322 9.40352 13.4961C9.67239 13.1548 9.8094 12.7567 9.81457 12.3017C9.8094 11.8881 9.6879 11.5468 9.45006 11.278C9.21222 11.0039 8.87872 10.7764 8.44957 10.5955C8.0256 10.4093 7.52923 10.2439 6.96048 10.0991L5.15341 9.63377C3.84528 9.29769 2.81119 8.7884 2.05114 8.1059C1.29625 7.41823 0.918807 6.50564 0.918807 5.36814C0.918807 4.43229 1.17216 3.61277 1.67886 2.90959C2.19074 2.20641 2.88616 1.66093 3.76514 1.27314C4.64412 0.880187 5.63943 0.68371 6.75108 0.68371C7.87824 0.68371 8.8658 0.880187 9.71375 1.27314C10.5669 1.66093 11.2364 2.20124 11.7225 2.89408C12.2085 3.58175 12.4593 4.37283 12.4748 5.26732H9.70599Z" fill="#4F44E0"/>
<path d="M15.133 16.7845V4.87178H17.9406V16.7845H15.133ZM16.5446 3.18104C16.0999 3.18104 15.7173 3.03368 15.3967 2.73897C15.0762 2.43908 14.9159 2.07973 14.9159 1.66093C14.9159 1.23695 15.0762 0.877602 15.3967 0.582886C15.7173 0.283 16.0999 0.133057 16.5446 0.133057C16.9944 0.133057 17.377 0.283 17.6924 0.582886C18.013 0.877602 18.1733 1.23695 18.1733 1.66093C18.1733 2.07973 18.013 2.43908 17.6924 2.73897C17.377 3.03368 16.9944 3.18104 16.5446 3.18104Z" fill="#4F44E0"/>
<path d="M26.0084 21.5C25.0002 21.5 24.1341 21.3629 23.4103 21.0889C22.6864 20.82 22.1047 20.4581 21.6653 20.0031C21.2258 19.5481 20.9207 19.044 20.7501 18.4908L23.2784 17.8781C23.3922 18.1107 23.5576 18.3408 23.7748 18.5683C23.992 18.801 24.2841 18.9923 24.6512 19.1422C25.0235 19.2973 25.4914 19.3749 26.055 19.3749C26.8512 19.3749 27.5105 19.181 28.0327 18.7932C28.5549 18.4106 28.816 17.7798 28.816 16.9008V14.6439H28.6764C28.5316 14.9335 28.3196 15.2308 28.0404 15.5358C27.7664 15.8409 27.4019 16.0968 26.9469 16.3037C26.497 16.5105 25.9309 16.6139 25.2484 16.6139C24.3332 16.6139 23.5034 16.3993 22.7588 15.9702C22.0194 15.5358 21.43 14.8895 20.9905 14.0312C20.5562 13.1678 20.339 12.0871 20.339 10.7894C20.339 9.48124 20.5562 8.37735 20.9905 7.47769C21.43 6.57286 22.022 5.88777 22.7666 5.42243C23.5111 4.95192 24.341 4.71667 25.2561 4.71667C25.9541 4.71667 26.5281 4.83559 26.9779 5.07343C27.4329 5.3061 27.7948 5.58789 28.0637 5.9188C28.3326 6.24453 28.5368 6.55218 28.6764 6.84172H28.8315V4.87178H31.6003V16.9784C31.6003 17.997 31.3573 18.8398 30.8712 19.5068C30.3852 20.1737 29.7208 20.6727 28.878 21.0036C28.0353 21.3345 27.0787 21.5 26.0084 21.5ZM26.0317 14.4113C26.6263 14.4113 27.133 14.2665 27.5518 13.977C27.9706 13.6874 28.2886 13.2712 28.5058 12.7283C28.7229 12.1854 28.8315 11.5339 28.8315 10.7739C28.8315 10.0241 28.7229 9.36749 28.5058 8.80391C28.2938 8.24033 27.9784 7.80343 27.5596 7.4932C27.1459 7.1778 26.6366 7.0201 26.0317 7.0201C25.4061 7.0201 24.8839 7.18297 24.4651 7.50871C24.0462 7.83445 23.7309 8.28169 23.5189 8.85044C23.3069 9.41402 23.2009 10.0552 23.2009 10.7739C23.2009 11.5029 23.3069 12.1414 23.5189 12.6895C23.736 13.2324 24.054 13.6564 24.4728 13.9614C24.8968 14.2613 25.4164 14.4113 26.0317 14.4113Z" fill="#4F44E0"/>
<path d="M40.5116 4.87178V7.04337H33.4694V4.87178H40.5116ZM35.2299 16.7845V3.7472C35.2299 2.94578 35.3954 2.2788 35.7263 1.74624C36.0624 1.21368 36.5122 0.815557 37.0758 0.551863C37.6394 0.28817 38.265 0.156323 38.9527 0.156323C39.4387 0.156323 39.8704 0.195102 40.2479 0.272659C40.6253 0.350216 40.9045 0.420017 41.0855 0.482063L40.5271 2.65365C40.4081 2.61746 40.2582 2.58127 40.0772 2.54507C39.8963 2.50371 39.6946 2.48303 39.4723 2.48303C38.9501 2.48303 38.5804 2.6097 38.3632 2.86306C38.1512 3.11124 38.0453 3.468 38.0453 3.93334V16.7845H35.2299Z" fill="#4F44E0"/>
<path d="M45.5179 0.900869V16.7845H42.7103V0.900869H45.5179Z" fill="#4F44E0"/>
<path d="M53.6012 17.0172C52.4379 17.0172 51.4296 16.7612 50.5765 16.2494C49.7234 15.7375 49.0616 15.0214 48.591 14.101C48.1257 13.1807 47.893 12.1052 47.893 10.8747C47.893 9.64411 48.1257 8.56607 48.591 7.64056C49.0616 6.71505 49.7234 5.99635 50.5765 5.48448C51.4296 4.9726 52.4379 4.71667 53.6012 4.71667C54.7646 4.71667 55.7728 4.9726 56.6259 5.48448C57.4791 5.99635 58.1383 6.71505 58.6036 7.64056C59.0741 8.56607 59.3094 9.64411 59.3094 10.8747C59.3094 12.1052 59.0741 13.1807 58.6036 14.101C58.1383 15.0214 57.4791 15.7375 56.6259 16.2494C55.7728 16.7612 54.7646 17.0172 53.6012 17.0172ZM53.6167 14.768C54.2475 14.768 54.7749 14.5948 55.1989 14.2484C55.6229 13.8968 55.9383 13.4263 56.1451 12.8369C56.3571 12.2474 56.4631 11.5908 56.4631 10.8669C56.4631 10.1379 56.3571 9.47865 56.1451 8.88922C55.9383 8.29462 55.6229 7.82152 55.1989 7.46993C54.7749 7.11834 54.2475 6.94255 53.6167 6.94255C52.9704 6.94255 52.4327 7.11834 52.0035 7.46993C51.5796 7.82152 51.2616 8.29462 51.0496 8.88922C50.8428 9.47865 50.7394 10.1379 50.7394 10.8669C50.7394 11.5908 50.8428 12.2474 51.0496 12.8369C51.2616 13.4263 51.5796 13.8968 52.0035 14.2484C52.4327 14.5948 52.9704 14.768 53.6167 14.768Z" fill="#4F44E0"/>
<path d="M63.8096 16.7845L60.4437 4.87178H63.3055L65.3995 13.2479H65.5081L67.6487 4.87178H70.4795L72.6201 13.2014H72.7364L74.7994 4.87178H77.669L74.2953 16.7845H71.3714L69.1378 8.73411H68.9749L66.7413 16.7845H63.8096Z" fill="#4F44E0"/>
<path d="M79.7379 16.9551C79.2673 16.9551 78.8641 16.7897 78.528 16.4588C78.1919 16.1279 78.0264 15.7246 78.0316 15.2489C78.0264 14.7835 78.1919 14.3854 78.528 14.0545C78.8641 13.7236 79.2673 13.5581 79.7379 13.5581C80.1929 13.5581 80.5884 13.7236 80.9245 14.0545C81.2657 14.3854 81.4389 14.7835 81.4441 15.2489C81.4389 15.5643 81.3562 15.8512 81.1959 16.1098C81.0408 16.3683 80.834 16.5751 80.5755 16.7302C80.3221 16.8802 80.0429 16.9551 79.7379 16.9551Z" fill="#4F44E0"/>
</g>
</g>
</g>
</g>
</g>
</svg>
